# xmcd
#
# Track frame offsets: 
#        150
#        13652
#        27549
#        41123
#        58608
#        79982
#        99571
#        116463
#        133128
#        150953
#        167514
#        186170
#
# Disc length: 2699 seconds
#
# Revision: 2
# Processed by: cddbd v1.5.2PL0 Copyright (c) Steve Scherf et al.
# Submitted via: ExactAudioCopyFreeDBPlugin 1.0
#
DISCID=980a890c
DTITLE=Motörhead - Kiss Of Death (Japan VICP-63608)
DYEAR=2006
DGENRE=Hard Rock
TTITLE0=Sucker
TTITLE1=One Night Stand
TTITLE2=Devil I Know
TTITLE3=Trigger
TTITLE4=Under The Gun
TTITLE5=God Was Never On Your Side
TTITLE6=Living In The Past
TTITLE7=Christine
TTITLE8=Sword Of Glory
TTITLE9=Be My Baby
TTITLE10=Kingdom Of The Worm
TTITLE11=Going Down
EXTD=
EXTT0=
EXTT1=
EXTT2=
EXTT3=
EXTT4=
EXTT5=
EXTT6=
EXTT7=
EXTT8=
EXTT9=
EXTT10=
EXTT11=
PLAYORDER=
